HIERARCHY
ROOT Hips
{
  OFFSET -213.699 104.721 0.752556
  CHANNELS 6 Xposition Yposition Zposition Zrotation Xrotation Yrotation
  JOINT RightUpLeg
  {
    OFFSET -8.9458 -8.66707 0.101652
    CHANNELS 3 Zrotation Xrotation Yrotation
    JOINT RightLeg
    {
      OFFSET 0 -44.4227 1.3727
      CHANNELS 3 Zrotation Xrotation Yrotation
      JOINT RightFoot
      {
        OFFSET 0.253549 -42.0924 -1.46059
        CHANNELS 3 Zrotation Xrotation Yrotation
        JOINT RightToes
        {
          OFFSET 0.04 -4.41509 8.4991
          CHANNELS 3 Zrotation Xrotation Yrotation
          End Site
          {
            OFFSET -0.08 -0.137448 9.77979
          }
        }
      }
    }
  }
  JOINT Spine
  {
    OFFSET 0 11.8905 0
    CHANNELS 3 Zrotation Xrotation Yrotation
    JOINT Spine1
    {
      OFFSET 0 25.6574 0.127663
      CHANNELS 3 Zrotation Xrotation Yrotation
      JOINT HEad
      {
        OFFSET 0 8.73416 0.011341
        CHANNELS 3 Zrotation Xrotation Yrotation
        End Site
        {
          OFFSET -0.29 12.7742 2.51395
        }
      }
      JOINT LeftShoulder1
      {
        OFFSET 8.99 -0.362252 -0.22
        CHANNELS 3 Zrotation Xrotation Yrotation
        JOINT LeftArm
        {
          OFFSET 10.2827 -0.00337999 0.322123
          CHANNELS 3 Zrotation Xrotation Yrotation
          JOINT LeftForeArm
          {
            OFFSET 26.2597 0.099144 -1.42434
            CHANNELS 3 Zrotation Xrotation Yrotation
            JOINT LeftHand
            {
              OFFSET 22.0902 0.085362 1.02216
              CHANNELS 3 Zrotation Xrotation Yrotation
              End Site
              {
                OFFSET 13.419 -0.6 1.50291
              }
            }
          }
        }
      }
      JOINT RightShoulder
      {
        OFFSET -8.99 -0.362252 -0.22
        CHANNELS 3 Zrotation Xrotation Yrotation
        JOINT RightArm
        {
          OFFSET -10.2827 -0.00338 0.322123
          CHANNELS 3 Zrotation Xrotation Yrotation
          JOINT RightForeArm
          {
            OFFSET -26.364 0.099144 -1.42434
            CHANNELS 3 Zrotation Xrotation Yrotation
            JOINT RightHand
            {
              OFFSET -22.0324 0.085362 1.02216
              CHANNELS 3 Zrotation Xrotation Yrotation
              End Site
              {
                OFFSET -13.3284 -0.6 1.50291
              }
            }
          }
        }
      }
    }
  }
  JOINT LeftUpLeg
  {
    OFFSET 8.9458 -8.66707 0.101652
    CHANNELS 3 Zrotation Xrotation Yrotation
    JOINT LeftLeg
    {
      OFFSET 0 -44.4227 1.3727
      CHANNELS 3 Zrotation Xrotation Yrotation
      JOINT LeftFoot
      {
        OFFSET -0.253549 -42.0924 -1.46059
        CHANNELS 3 Zrotation Xrotation Yrotation
        JOINT LeftToes
        {
          OFFSET -0.04 -4.41509 8.4991
          CHANNELS 3 Zrotation Xrotation Yrotation
          End Site
          {
            OFFSET 0.08 -0.047448 9.77979
          }
        }
      }
    }
  }
}
MOTION
Frames:	16
Frame Time:	0.0333333
-152.962 99.4242 45.5582 -0.52554 -6.51911 21.7676 -2.56685 -3.20392 -9.60405 -0.839318 63.6842 -0.559053 13.6479 5.06425 -1.61041 0.0462048 0.000530889 0.662642 -0.197331 9.73198 0.593231 0.550528 2.15083 0.906743 -2.73189 6.18309 2.34124 -32.3814 -3.9786 13.8352 -72.5655 -48.87 -31.5481 -172.905 63.7431 175.647 9.79906 8.93871 -6.97506 29.6058 -0.414413 -5.27405 54.623 -22.5361 25.3043 11.3643 69.3925 2.20798 -1.95249 9.82557 1.80762 -7.40168 -17.854 -2.88184 -0.158899 15.0113 21.1581 18.1905 4.50175 -1.9944 -1.32715e-009 8.75175e-006 -1.46528e-008 
-152.301 99.4945 47.8993 0.300575 -6.7777 24.0936 -2.24404 -6.96521 -6.08343 -1.08358 69.2314 -0.668402 11.0952 5.28523 -1.34828 0.0462048 0.000530889 0.662642 -1.29041 10.2042 0.576647 0.513298 2.76093 0.647917 -2.97801 5.95753 1.29822 -32.1164 -3.86851 13.6191 -74.5688 -47.4665 -33.4706 -173.253 62.3675 176.062 10.3816 8.90427 -6.62716 29.6867 -0.376634 -5.16423 55.1443 -23.3215 25.0679 12.5717 69.8698 0.472965 -2.0127 9.82195 1.79488 -8.07277 -17.0686 -1.58222 -0.271092 18.0866 17.9856 16.944 1.85752 -1.4436 -1.32715e-009 8.75175e-006 -1.46528e-008 
-151.608 99.951 50.2112 0.749565 -6.88628 26.711 -1.11505 -10.1452 -2.66395 -1.42226 71.4368 -2.91526 9.32047 2.62432 -0.941126 0.0462048 0.000530889 0.662642 -2.14611 10.406 0.439066 0.829795 2.69951 0.290536 -3.11454 7.71826 0.71473 -32.1209 -3.8761 13.6375 -74.8601 -46.028 -33.953 -173.176 63.179 175.024 11.0649 8.81782 -6.79118 29.7708 -0.403539 -5.23528 55.6112 -24.1063 24.8455 15.1437 71.8471 -2.7502 -1.8488 9.83351 1.59656 -8.49276 -15.2803 -1.61111 -0.335976 18.5149 16.0872 16.4596 0.646076 -1.22181 -1.32715e-009 8.75175e-006 -1.46528e-008 
-150.956 100.601 52.4378 1.01444 -6.95268 30.0626 0.160259 -12.9183 0.176466 -1.7624 70.844 -6.54444 7.55707 0.208102 -0.640467 0.0462048 0.000530889 0.662642 -3.02105 10.6748 0.18098 1.56749 2.26903 -0.231669 -2.77789 9.91808 0.207791 -31.87 -3.78159 13.4558 -74.4165 -44.4658 -33.6212 -172.294 65.9946 172.511 10.7566 8.77947 -7.64625 30.033 -0.532471 -5.57982 55.4852 -24.4386 24.2591 16.9535 73.2363 -4.78294 -1.69852 9.84426 1.32248 -8.74594 -12.9396 -2.36665 -0.307599 17.604 13.9137 15.8593 0.101197 -1.09962 -1.32715e-009 8.75175e-006 -1.46528e-008 
-150.368 101.265 54.5547 1.17814 -6.95448 33.9457 1.48672 -15.4484 2.98832 -1.92861 68.29 -10.4221 5.06268 -1.82489 -0.394187 0.0462048 0.000530889 0.662642 -3.616 10.8497 -0.0856234 2.08539 2.12604 -0.687339 -1.94047 11.065 -0.517467 -31.2817 -3.58231 13.081 -74.1124 -42.5189 -33.2545 -170.543 69.0179 168.966 9.3101 8.86835 -8.66654 30.3906 -0.670858 -5.93951 54.8835 -24.5323 23.1386 16.0685 72.9084 -3.68078 -1.69222 9.84497 1.25985 -8.81097 -10.5391 -3.09592 -0.0763937 16.3236 10.743 14.5038 -0.363742 -0.943868 -1.32715e-009 8.75175e-006 -1.46528e-008 
-149.815 101.853 56.583 1.11244 -6.84851 37.9092 2.80393 -17.8609 6.14211 -1.89356 64.2964 -13.6907 3.03462 -4.2015 -0.239299 0.0462048 0.000530889 0.662642 -3.71523 10.7745 -0.292412 2.17876 2.24835 -0.956166 -0.902323 11.2605 -1.45024 -30.7508 -3.41623 12.7695 -74.0085 -40.4213 -33.0821 -168.748 70.7745 165.604 8.07708 8.97508 -9.35924 30.6975 -0.786666 -6.23426 54.1858 -24.5355 21.799 13.9627 71.6519 -1.25563 -1.78916 9.83758 1.4904 -8.71215 -8.51261 -3.70424 0.451205 15.0574 7.26645 13.5165 -0.61321 -0.848511 -1.32715e-009 8.75175e-006 -1.46528e-008 
-149.319 102.357 58.5398 0.792671 -6.69292 41.8837 3.8603 -20.2048 9.30792 -1.71831 59.1153 -15.5153 2.17863 -6.18432 -0.189007 0.0462048 0.000530889 0.662642 -3.62365 10.6439 -0.476491 2.26757 2.28675 -1.1846 0.130115 11.2348 -2.36473 -30.5285 -3.33403 12.6014 -74.0377 -38.6636 -33.1418 -168.613 71.4196 164.297 8.12828 8.94226 -9.78233 30.9083 -0.897794 -6.51932 53.6146 -24.4771 20.7622 12.5621 70.712 0.393942 -1.93309 9.82949 1.67244 -8.41836 -6.94218 -4.01163 1.17954 13.8953 3.49642 13.63 -0.648481 -0.851436 -1.32715e-009 8.75175e-006 -1.46528e-008 
-148.887 102.78 60.4614 0.388001 -6.59345 45.9263 4.49174 -22.2928 12.1192 -1.45934 53.0377 -15.4189 1.59018 -7.28832 -0.174839 0.0462048 0.000530889 0.662642 -3.6704 10.6533 -0.675533 2.62242 2.23286 -1.49049 1.04399 11.1828 -2.94599 -30.5014 -3.30052 12.5167 -74.3199 -37.4359 -33.5004 -171.007 71.9643 165.843 8.93717 8.81615 -10.0647 31.0226 -0.9592 -6.67566 53.2839 -24.4388 20.2559 12.1179 70.2464 0.952304 -2.05303 9.82851 1.47044 -7.77839 -5.74175 -3.84773 1.71483 13.1412 -0.875656 13.975 -0.939476 -0.835622 -1.32715e-009 8.75175e-006 -1.46528e-008 
-148.428 103.096 62.3854 0.0838729 -6.55079 49.6954 4.67584 -23.9389 14.6356 -1.18108 46.448 -13.6027 1.18858 -8.39256 -0.168735 0.0462048 0.000530889 0.662642 -3.874 10.7978 -0.785107 3.00257 2.19105 -1.71683 1.65697 11.0752 -3.11735 -30.5159 -3.29491 12.4979 -74.8358 -36.6609 -34.0099 -171.957 72.5634 166.411 9.49444 8.73732 -10.116 31.021 -0.92586 -6.58581 53.4175 -24.7634 20.2502 12.4313 70.2205 0.403277 -2.0509 9.83029 1.07034 -6.84342 -4.88194 -3.21866 1.87361 13.1036 -5.36915 13.8273 -1.76236 -0.722612 -1.32715e-009 8.75175e-006 -1.46528e-008 
-147.841 103.297 64.299 -0.0865026 -6.53849 52.7146 4.52859 -25.2396 16.8649 -0.924584 39.8363 -10.6975 1.9576 -9.93587 -0.145431 0.0462048 0.000530889 0.662642 -3.98239 11.0409 -0.683999 3.10025 2.05448 -1.64556 1.89456 11.0785 -3.15482 -30.5859 -3.32475 12.562 -75.3985 -36.3648 -34.3829 -171.188 72.7713 165.706 9.69884 8.73059 -9.84266 30.8971 -0.838059 -6.35857 53.9543 -25.3629 20.6357 13.3712 70.7768 -1.14188 -1.96509 9.83216 0.882715 -5.86592 -4.2586 -2.42333 1.89874 13.6631 -9.11229 13.4924 -2.91008 -0.562023 -1.32715e-009 8.75175e-006 -1.46528e-008 
-147.106 103.425 66.172 -0.136079 -6.60165 54.9939 4.27593 -26.3321 18.4315 -0.714895 33.7803 -7.73171 3.76997 -11.1392 -0.0793756 0.0462048 0.000530889 0.662642 -3.81399 11.3613 -0.447602 2.98022 1.83355 -1.34967 1.89943 11.2164 -3.20664 -30.7752 -3.40128 12.7226 -75.8519 -36.6566 -34.537 -169.279 72.1375 164.348 9.94135 8.72849 -9.45902 30.6928 -0.741077 -6.11052 54.3928 -25.6063 21.1728 14.3941 71.477 -2.62246 -1.92383 9.83325 0.931831 -5.01568 -3.57656 -1.84977 2.09437 14.3842 -11.9111 13.1704 -4.10659 -0.403044 -1.32715e-009 8.75175e-006 -1.46528e-008 
-146.247 103.513 68.0353 -0.0211504 -6.70299 56.979 4.04928 -27.2572 19.0009 -0.597578 28.9414 -5.97415 5.46924 -11.4826 -0.0129462 0.0462048 0.000530889 0.662642 -3.60078 11.6441 -0.262929 2.92482 1.78154 -1.11566 1.83256 11.2836 -3.07727 -31.0106 -3.50442 12.9417 -76.0396 -37.4603 -34.4985 -168.34 70.7952 164.209 10.1479 8.7145 -9.29949 30.5384 -0.647224 -5.8653 54.4289 -25.3792 21.6413 14.6541 71.7409 -2.71794 -1.94145 9.83307 0.979054 -4.32094 -2.65784 -1.60268 2.47706 15.0402 -14.2103 12.6435 -5.34632 -0.241365 -1.32715e-009 8.75175e-006 -1.46528e-008 
-145.275 103.55 69.9554 0.20748 -6.67467 58.9661 3.85255 -28.1558 18.5972 -0.593005 25.8007 -5.93889 6.4485 -11.4096 0.017465 0.0462048 0.000530889 0.662642 -3.6799 11.7451 -0.178367 3.02093 1.96596 -1.05125 1.76057 11.2458 -2.73855 -31.0998 -3.56007 13.0683 -75.8369 -38.5375 -34.1788 -170.201 69.1407 166.721 10.0225 8.72856 -9.32524 30.6063 -0.611524 -5.76352 54.1824 -24.8423 22.0425 13.7992 71.2416 -1.30759 -1.98007 9.83033 1.05375 -3.72548 -1.64466 -1.52868 2.83852 15.6382 -16.318 12.006 -6.72409 -0.0738603 -1.32715e-009 8.75175e-006 -1.46528e-008 
-144.197 103.508 71.9609 0.390873 -6.43441 60.9258 3.70635 -29.1988 17.5547 -0.64431 24.4169 -6.67598 6.76663 -11.4367 0.0294179 0.0462048 0.000530889 0.662642 -3.98688 11.597 -0.113897 3.05326 2.22422 -1.01053 1.76871 11.2371 -2.55273 -30.956 -3.5033 12.9522 -75.3869 -39.7237 -33.6155 -171.629 67.23 168.822 9.7702 8.7731 -9.16648 30.897 -0.682321 -5.93713 53.9863 -24.2258 22.5094 12.4127 70.248 0.548435 -2.09441 9.82147 1.30493 -3.15141 -0.809763 -1.45277 3.08584 16.3302 -18.3521 11.5907 -8.25448 0.0959822 -1.32715e-009 8.75175e-006 -1.46528e-008 
-143.007 103.398 74.0241 0.475227 -6.12809 62.8619 3.66791 -30.1851 16.5869 -0.657636 24.3728 -6.96683 6.62735 -11.3008 0.0181109 0.0462048 0.000530889 0.662642 -4.10836 11.2201 -0.0732282 2.86691 2.57442 -0.924935 1.9605 11.2118 -2.74793 -30.7123 -3.36882 12.6504 -75.0173 -40.9791 -33.1337 -172.667 65.3905 170.658 9.85947 8.80103 -8.66632 31.1862 -0.785276 -6.19511 53.8943 -23.5109 22.9289 10.8303 68.9814 2.55054 -2.29372 9.80779 1.50434 -2.5119 -0.11745 -1.43873 3.28885 17.1423 -20.3965 11.3994 -9.75767 0.255982 -1.32715e-009 8.75175e-006 -1.46528e-008 
-141.685 103.278 76.1032 0.5361 -5.90801 64.9474 3.74674 -30.7709 16.3745 -0.616747 25.2517 -6.68371 6.63251 -10.4545 -0.0270728 0.0462048 0.000530889 0.662642 -3.87943 10.748 -0.116919 2.67842 3.11196 -0.922941 2.28935 11.0377 -3.1686 -30.5528 -3.25877 12.3909 -74.8172 -42.2389 -32.9317 -173.261 63.9427 172.16 10.2838 8.79471 -8.10223 31.3326 -0.826024 -6.29354 53.4845 -22.1555 22.9767 9.04655 67.0575 4.9999 -2.44673 9.80085 1.31766 -1.76053 0.704081 -1.75688 3.46594 17.8258 -22.2988 11.2916 -10.9916 0.385628 -1.32715e-009 8.75175e-006 -1.46528e-008 
